<svg width="36" height="52" viewBox="0 0 36 52" fill="none" xmlns="http://www.w3.org/2000/svg">
<path d="M10.5258 0.82605C-3.51466 0.82605 -14.9482 12.3 -14.9482 26.3899C-14.9482 40.4799 -3.51466 51.9538 10.5258 51.9538C24.5662 51.9538 35.9998 40.4799 35.9998 26.3899C36.0455 12.3 24.6119 0.82605 10.5258 0.82605ZM34.8564 28.3634C34.582 31.7597 33.5759 34.9265 32.1124 37.6344C30.6946 40.3422 28.7738 42.637 26.8072 44.4269C24.7949 46.2168 22.6911 47.5019 20.6788 48.3739C18.7122 49.246 16.8828 49.7508 15.3736 50.0262C13.8644 50.3016 12.6296 50.3475 11.8063 50.3933C10.9831 50.3933 10.5258 50.3933 10.5258 50.3933C10.5258 50.3933 10.9831 50.3475 11.8063 50.3475C12.6296 50.2557 13.8186 50.1639 15.3279 49.7967C16.8371 49.4754 18.6208 48.8788 20.4959 47.9609C22.4167 47.043 24.429 45.712 26.3498 43.9221C28.225 42.1321 30.0086 39.8832 31.3349 37.2213C32.6612 34.5593 33.5301 31.4843 33.8045 28.2716C34.0332 25.0131 33.6216 21.6627 32.4783 18.4959C31.655 16.1552 30.3745 13.9522 28.8652 11.9787C29.3226 13.5391 29.8257 15.6962 30.0086 18.1746C29.9629 18.1287 29.9171 18.0828 29.8714 18.0369C29.597 17.8074 29.2768 17.7156 29.0939 17.7156C29.0024 17.7156 28.911 17.7615 28.8652 17.7615C28.8195 17.7615 28.7738 17.8074 28.7738 17.8074C28.7738 17.8074 28.8195 17.8074 28.8652 17.8074C28.911 17.8074 29.0024 17.8533 29.0482 17.8992C29.1854 17.991 29.3683 18.1287 29.5513 18.3582C29.6885 18.5877 29.8257 18.9089 29.8714 19.2302C29.8714 19.2761 29.8714 19.322 29.8714 19.3679V19.5056C29.8714 19.5974 29.8714 19.6892 29.8714 19.7351C29.8714 19.9186 29.8257 20.0563 29.7799 20.2399C29.7342 20.3776 29.6427 20.5153 29.5513 20.6071C29.4598 20.6989 29.4141 20.7448 29.2311 20.7907C29.1854 20.7907 29.0024 20.7907 28.911 20.7448C28.7738 20.6989 28.6823 20.6071 28.5451 20.5153C28.3164 20.3317 28.1792 20.1022 28.0878 19.9645C27.9963 19.8268 27.9506 19.6892 27.9506 19.6892C27.9506 19.6892 27.9506 19.7351 27.9506 19.781C27.9506 19.8268 27.9506 19.9186 27.9506 20.0104C27.9506 20.194 27.9963 20.5153 28.1792 20.7907C28.2707 20.9283 28.4079 21.1119 28.5908 21.2496C28.7738 21.3873 29.0024 21.525 29.3226 21.525C29.5513 21.525 29.9171 21.4332 30.1001 21.2496L30.1458 21.2037C30.1001 22.6265 29.9171 24.141 29.597 25.7015C29.9171 25.7015 30.1458 25.5638 30.3287 25.4261C30.5117 25.2884 30.6489 25.1507 30.7403 25.0131C30.8318 24.8754 30.9233 24.7836 30.969 24.7377C31.0148 24.6918 31.0605 24.6459 31.0605 24.6459C31.0605 24.6459 31.0605 24.7377 31.0605 24.8295C31.0605 24.9672 31.0148 25.1507 30.9233 25.3343C30.8318 25.5179 30.6489 25.7474 30.4202 25.931C30.1915 26.1145 29.9171 26.2063 29.597 26.2063C29.2768 26.2063 29.0024 26.1145 28.7738 25.931C28.5451 25.7474 28.4079 25.5179 28.3164 25.3343C28.225 25.1507 28.1792 24.9213 28.1792 24.8295C28.1792 24.6918 28.1792 24.6459 28.1792 24.6459C28.1792 24.6459 27.9963 24.7377 27.9506 25.1507C27.9506 25.3802 27.9506 25.6556 28.1792 26.0228C28.3622 26.344 28.7738 26.7112 29.3683 26.803C29.2768 27.0784 29.2311 27.3537 29.1396 27.6291C28.7738 27.6291 28.4536 27.7668 28.225 28.0422C27.8134 28.547 27.9048 29.3272 28.4079 29.7403C28.042 30.6582 27.5847 31.622 27.0816 32.5399C27.5389 32.5858 27.9048 32.4481 28.1792 32.3105C28.5451 32.1269 28.7738 31.8974 28.9567 31.7138C29.1396 31.5302 29.2311 31.3925 29.3226 31.3467C29.4141 31.2549 29.4598 31.2549 29.4598 31.2549C29.4598 31.2549 29.4141 31.3467 29.3683 31.5761C29.2768 31.7597 29.1396 32.0351 28.911 32.3105C28.6823 32.5858 28.3622 32.8153 27.9506 32.9989C27.7676 33.0907 27.5389 33.1366 27.3103 33.1366C27.0816 33.1366 26.8529 33.1366 26.6243 33.0448C26.3956 32.9989 26.1669 32.8612 25.984 32.7694C25.801 32.6317 25.6181 32.494 25.4809 32.3105C25.2065 31.9433 25.0693 31.5761 25.0236 31.209C24.9778 30.8418 24.9778 30.5664 25.0236 30.3828C25.0693 30.1993 25.0693 30.0616 25.0693 30.0616C25.0693 30.0616 25.0236 30.0616 24.9778 30.1534C24.8864 30.2452 24.7949 30.3828 24.7034 30.7041C24.6577 30.9795 24.5662 31.4384 24.7949 31.9892C24.8864 32.2646 25.0693 32.5858 25.3437 32.8612C25.6181 33.1366 25.984 33.412 26.4871 33.5496C26.3041 33.8709 26.0754 34.1922 25.8925 34.5135C25.7553 34.5135 25.6181 34.5135 25.4809 34.5135C24.7034 34.6511 24.2003 35.2937 24.2918 35.9362C24.2918 35.9821 24.3375 36.0739 24.3375 36.1198C23.7887 35.9821 23.2857 35.4773 23.1484 34.697C22.9198 33.3202 21.7307 30.4746 20.6331 29.878C19.444 29.2355 18.4836 30.7959 19.1238 31.3008C20.5873 32.4023 19.8556 34.5135 19.9928 36.3493C20.0385 37.0836 20.4044 37.6803 20.7245 38.231C19.9928 38.4605 19.5354 39.1489 19.6726 39.7915C19.7184 40.1586 19.947 40.434 20.2672 40.6176C19.8098 40.9847 19.3982 41.306 18.9409 41.6273C18.9409 41.5814 18.9409 41.5355 18.9409 41.4896C18.8952 40.8929 18.7122 40.3881 18.4835 40.0209C18.2549 39.6538 17.9805 39.3784 17.7518 39.2407C17.2487 38.8735 16.8828 38.8276 16.6999 38.8276C16.4712 38.8276 16.4255 38.8276 16.4255 38.8276C16.4255 38.8276 16.4712 38.8276 16.5627 38.8735C16.6542 38.9194 16.7914 38.9653 16.9743 39.0571C17.2945 39.2407 17.7975 39.6538 18.1177 40.2504C18.4378 40.8471 18.5293 41.7191 18.2091 42.5452C17.9347 43.3713 17.2487 44.1056 16.4255 44.5187C15.6023 44.9318 14.5961 44.9777 13.8186 44.6564C12.9954 44.3351 12.4009 43.6926 12.1722 43.05C11.8978 42.4075 11.9435 41.8109 12.035 41.3978C12.0807 41.2142 12.1265 41.0306 12.1722 40.9388C12.2179 40.8471 12.2179 40.8012 12.2179 40.8012C12.2179 40.8012 12.1722 40.847 12.035 41.0306C11.9435 41.2142 11.7149 41.5355 11.6691 42.1321C11.6234 42.4075 11.6234 42.7747 11.7606 43.2336C11.8521 43.6467 12.1265 44.1056 12.5381 44.5646C12.6296 44.6564 12.721 44.7482 12.8582 44.84C12.3552 45.0236 11.8521 45.1612 11.349 45.2989C11.2118 44.9318 11.0289 44.7023 10.8459 44.5187C10.6172 44.2892 10.3886 44.1515 10.2056 44.0597C9.79403 43.8762 9.56536 43.8762 9.38242 43.8762C9.24522 43.8762 9.15375 43.9221 9.15375 43.9221C9.15375 43.9221 9.19948 43.9221 9.24522 43.968C9.33669 44.0139 9.42815 44.0597 9.56536 44.1056C9.83976 44.2433 10.1599 44.4728 10.48 44.84C10.6172 45.0236 10.7544 45.253 10.8459 45.5284C10.9374 45.8038 10.8917 46.125 10.8002 46.4004C10.5715 46.9971 9.93123 47.3642 9.29095 47.5019C8.01039 47.7773 6.59263 47.1806 6.04381 46.3545C5.76941 45.9415 5.67794 45.5284 5.72367 45.2071C5.72367 45.0695 5.76941 44.9318 5.81514 44.8859C5.86088 44.7941 5.86088 44.7941 5.86088 44.7941C5.86088 44.7941 5.81514 44.7941 5.67794 44.9318C5.58647 45.0695 5.40353 45.2989 5.40353 45.7579C5.40353 45.8497 5.40353 45.9874 5.44927 46.125C5.12913 46.125 4.80899 46.125 4.53458 46.125C4.58032 45.9874 4.58032 45.8038 4.53458 45.6661C4.39738 44.9318 3.57416 44.4269 2.70521 44.6105C2.65947 44.6105 2.568 44.6564 2.52227 44.6564C2.52227 44.3351 2.61374 44.0139 2.79667 43.7844C3.61989 42.5911 5.99808 41.7191 6.08955 39.6538C6.13528 38.1392 -0.313258 38.6441 -0.313258 41.0765C-0.267524 43.4631 -1.36515 43.2795 -2.18836 44.6105C-2.32557 44.84 -2.46277 45.0236 -2.59997 45.1612C-3.19452 44.9777 -3.74333 44.84 -4.20068 44.6564C-4.15494 44.6105 -4.15494 44.5646 -4.10921 44.5187C-3.92627 44.1974 -4.06347 43.7385 -4.47508 43.509C-4.84096 43.2795 -5.34403 43.3713 -5.52697 43.6926C-5.57271 43.7844 -5.57271 43.8303 -5.61844 43.9221C-10.2376 39.562 -13.1189 33.3661 -13.1189 26.4817C-13.1189 26.4817 -13.1189 26.0228 -13.1189 25.1966C-13.0731 24.3705 -13.0274 23.1313 -12.753 21.6168C-12.4786 20.1022 -11.9755 18.2664 -11.1066 16.2929C-10.2376 14.3194 -8.95705 12.1623 -7.17341 10.1888C-5.38977 8.16935 -3.14879 6.28763 -0.404727 4.86487C2.2936 3.39621 5.44927 2.3865 8.83361 2.11113C12.1722 1.83575 15.7395 2.20292 19.0781 3.4421C22.4167 4.63539 25.5266 6.6089 28.0878 9.17906C30.6031 11.7492 32.6155 14.8701 33.8045 18.2205C34.765 21.4332 35.1308 25.0131 34.8564 28.3634Z" fill="white" fill-opacity="0.2"/>
<path d="M16.9744 33.0448C16.7458 32.6777 16.4714 32.3564 16.1969 32.1269C15.9225 31.8974 15.6024 31.7597 15.328 31.668C15.0536 31.5762 14.8249 31.5303 14.5962 31.4844C14.3676 31.4844 14.2304 31.4844 14.1389 31.4844C14.0474 31.4844 13.956 31.4844 13.956 31.4844C13.956 31.4844 14.0017 31.4844 14.1389 31.5303C14.2304 31.5303 14.4133 31.5762 14.5962 31.6221C14.7792 31.668 15.0079 31.7597 15.2365 31.8974C15.4652 32.0351 15.6939 32.2187 15.9225 32.4482C16.1512 32.6777 16.3341 32.953 16.4714 33.2743C16.6086 33.5956 16.7 33.9627 16.7 34.3299C16.7 34.4217 16.7 34.5135 16.7 34.6053C16.7 34.6971 16.7 34.8348 16.6543 34.9265C16.6086 35.1101 16.5628 35.2937 16.5171 35.4773C16.3799 35.8445 16.1512 36.1657 15.8768 36.4411C15.6024 36.7165 15.2823 36.946 14.9164 37.0836C14.5505 37.2213 14.1846 37.2672 13.773 37.2672C13.4072 37.2672 13.0413 37.1754 12.7211 37.0378C12.401 36.9001 12.1266 36.7165 11.8979 36.487C11.6692 36.2575 11.4863 36.028 11.3491 35.7986C11.2119 35.5691 11.1204 35.3396 11.0747 35.156C11.029 34.9724 10.9832 34.8348 10.9832 34.6971C10.9832 34.6053 10.9375 34.5135 10.9375 34.5135C10.9375 34.5135 10.9375 34.5594 10.9375 34.6971C10.9375 34.7889 10.9375 34.9724 10.9375 35.156C10.9832 35.3396 10.9832 35.615 11.1204 35.8904C11.2119 36.1657 11.3491 36.4411 11.5778 36.7624C12.0351 37.359 12.7669 37.8639 13.773 37.9557C14.2304 38.0016 14.7334 37.9557 15.1908 37.7721C15.6481 37.5885 16.1055 37.3131 16.4714 36.9919C16.8372 36.6247 17.1116 36.1657 17.2488 35.7068C17.3403 35.4773 17.386 35.2478 17.4318 34.9724C17.4318 34.8348 17.4318 34.743 17.4318 34.6512C17.4318 34.5135 17.4318 34.4217 17.4318 34.284C17.3403 33.8251 17.1574 33.412 16.9744 33.0448Z" fill="white" fill-opacity="0.2"/>
<path d="M3.48282 31.5303C3.39135 30.8418 2.97974 30.337 2.56813 30.0157C2.33946 29.878 2.15652 29.7862 1.97359 29.6945C1.79065 29.6486 1.60771 29.6027 1.47051 29.6027C1.33331 29.6027 1.1961 29.6027 1.15037 29.6027C1.0589 29.6027 1.0589 29.6027 1.0589 29.6027C1.0589 29.6027 1.10463 29.6027 1.15037 29.6486C1.24184 29.6486 1.33331 29.6945 1.42477 29.7403C1.65345 29.8321 1.97359 30.0157 2.24799 30.337C2.3852 30.4747 2.5224 30.6583 2.61387 30.8877C2.70534 31.1172 2.75107 31.3467 2.75107 31.5762C2.75107 31.6221 2.75107 31.7139 2.75107 31.7598C2.75107 31.8057 2.75107 31.8974 2.75107 31.9892C2.75107 32.081 2.70534 32.2187 2.6596 32.3105C2.56813 32.54 2.43093 32.7695 2.29373 32.9072C2.11079 33.0907 1.92785 33.2284 1.69918 33.3202C1.47051 33.412 1.24184 33.4579 0.967431 33.4579C0.738759 33.4579 0.510088 33.412 0.281416 33.3202C0.0527442 33.2284 -0.130192 33.1366 -0.267395 32.9989C-0.404598 32.8613 -0.541802 32.7236 -0.633271 32.5859C-0.72474 32.4482 -0.816208 32.3105 -0.861943 32.1728C-0.907677 32.0351 -0.95341 31.9433 -0.95341 31.8974C-0.95341 31.8057 -0.999146 31.8057 -0.999146 31.8057C-0.999146 31.8057 -0.999146 31.8515 -0.999146 31.8974C-0.999146 31.9892 -0.999146 32.081 -0.999146 32.2187C-0.999146 32.3564 -0.953411 32.54 -0.907676 32.7236C-0.861942 32.9072 -0.724739 33.1366 -0.587536 33.3202C-0.450333 33.5038 -0.221661 33.7333 0.00701046 33.871C0.281417 34.0086 0.555823 34.1463 0.921697 34.1922C1.24184 34.2381 1.60771 34.1922 1.92785 34.1004C2.24799 34.0086 2.56813 33.7792 2.84254 33.5038C3.11695 33.2284 3.29988 32.9071 3.39135 32.5859C3.43709 32.4023 3.48282 32.2187 3.48282 32.0351C3.48282 31.9433 3.48282 31.8974 3.48282 31.8057C3.52855 31.668 3.48282 31.6221 3.48282 31.5303Z" fill="white" fill-opacity="0.2"/>
<path d="M6.63847 25.931C6.86714 25.9769 7.14155 25.9769 7.37022 25.8851C7.59889 25.7933 7.8733 25.6556 8.05623 25.4721C8.23917 25.2885 8.37638 25.059 8.46784 24.7836C8.51358 24.6459 8.51358 24.5542 8.51358 24.3706C8.51358 24.2788 8.51358 24.2788 8.51358 24.2329C8.51358 24.1411 8.51358 24.0952 8.51358 24.0493C8.42211 23.5444 8.1477 23.1773 7.82756 22.9937C7.50742 22.8101 7.23302 22.7642 7.05008 22.7642C6.86714 22.7642 6.77567 22.8101 6.77567 22.8101C6.77567 22.8101 6.82141 22.8101 6.86714 22.856C6.91288 22.856 7.00435 22.9019 7.05008 22.9478C7.18728 23.0396 7.41595 23.1773 7.55316 23.3609C7.73609 23.5903 7.82756 23.8657 7.82756 24.1411C7.82756 24.187 7.82756 24.2329 7.82756 24.2329C7.82756 24.2788 7.82756 24.3247 7.82756 24.3706C7.82756 24.4165 7.78183 24.5083 7.78183 24.5541C7.73609 24.6918 7.64463 24.8295 7.55316 24.9213C7.46169 25.0131 7.32449 25.1049 7.18728 25.1508C7.05008 25.1967 6.91288 25.2426 6.77567 25.2426C6.63847 25.2426 6.50127 25.2426 6.36407 25.1967C6.22686 25.1508 6.08966 25.1049 5.99819 25.0131C5.76952 24.8754 5.63232 24.6459 5.54085 24.5083C5.49511 24.4165 5.44938 24.3706 5.44938 24.3247C5.44938 24.2788 5.40364 24.2329 5.40364 24.2329C5.40364 24.2329 5.40364 24.2788 5.40364 24.3247C5.40364 24.3706 5.35791 24.4624 5.35791 24.5541C5.35791 24.7377 5.40364 25.059 5.63232 25.3344C5.72378 25.4721 5.86099 25.6098 6.04393 25.7474C6.13539 25.8392 6.36406 25.931 6.63847 25.931Z" fill="white" fill-opacity="0.2"/>
<path d="M14.4591 8.26114C14.9164 8.26114 15.4195 8.26114 15.8768 8.16935C16.3342 8.07756 16.7915 7.93987 17.2489 7.71039C17.6147 7.52681 18.0264 7.15965 18.255 6.74658C18.3465 6.51711 18.438 6.28763 18.438 6.05815C18.438 5.82867 18.3922 5.64509 18.3008 5.46151C18.1636 5.09434 17.9349 4.81897 17.7062 4.63538C17.4775 4.4518 17.2946 4.31411 17.1117 4.22232C16.9287 4.13053 16.7915 4.08464 16.7001 4.03874C16.6086 3.99284 16.5629 3.99284 16.5629 3.99284C16.5629 3.99284 16.6086 4.03874 16.7001 4.08464C16.7915 4.13053 16.9287 4.26822 17.0659 4.36001C17.2031 4.4977 17.3861 4.68128 17.5233 4.86486C17.6605 5.09434 17.8434 5.32382 17.8892 5.59919C17.9349 5.87457 17.9349 6.19584 17.752 6.42531C17.569 6.70069 17.2946 6.88427 16.9287 7.06785C16.6086 7.20554 16.197 7.29733 15.7854 7.38912C15.3738 7.43502 14.9622 7.48091 14.5048 7.43502C14.0932 7.43502 13.6359 7.34323 13.2243 7.25144C12.8126 7.15964 12.401 7.02196 12.0352 6.88427C11.9437 6.83838 11.8522 6.79248 11.7608 6.74658C11.6693 6.70069 11.5778 6.65479 11.4863 6.6089C11.3034 6.51711 11.1662 6.42531 11.029 6.33352C10.7546 6.10404 10.5259 5.87457 10.343 5.59919C10.2058 5.32382 10.1143 5.04845 10.1601 4.81897C10.2058 4.58949 10.2973 4.36001 10.3887 4.22232C10.4802 4.08464 10.6174 3.94695 10.6631 3.85516C10.7546 3.76337 10.8003 3.76337 10.8003 3.76337C10.8003 3.76337 10.7546 3.80926 10.6631 3.85516C10.5717 3.90105 10.4345 3.99285 10.2973 4.13053C10.16 4.26822 9.97711 4.4977 9.88564 4.77307C9.79417 5.04844 9.79417 5.46151 9.97711 5.82867C10.1143 6.19584 10.3887 6.51711 10.6631 6.79248C10.8003 6.93017 10.9833 7.06785 11.1662 7.20554C11.2577 7.25144 11.3491 7.29733 11.4406 7.38912C11.5321 7.43502 11.6235 7.48091 11.7608 7.57271C12.1724 7.75629 12.584 7.93987 13.0413 8.07756C13.5444 8.16935 14.0017 8.26114 14.4591 8.26114Z" fill="white" fill-opacity="0.2"/>
<path d="M22.1424 20.2399C22.1424 20.1022 22.1882 19.9645 22.1882 19.8268C22.1882 19.6891 22.1882 19.5973 22.1882 19.4596C22.1882 19.322 22.1424 19.2302 22.1424 19.0925C21.9595 18.1287 21.4107 17.3943 20.8161 16.9813C20.5417 16.7518 20.2216 16.6141 19.9472 16.5223C19.6728 16.4305 19.4441 16.3846 19.2154 16.3387C18.9868 16.3387 18.8496 16.3387 18.7581 16.3387C18.6666 16.3387 18.5752 16.3387 18.5752 16.3387C18.5752 16.3387 18.6209 16.3387 18.7581 16.3846C18.8496 16.3846 19.0325 16.4764 19.2154 16.5223C19.3984 16.6141 19.627 16.7059 19.8557 16.8436C20.0844 16.9813 20.3131 17.1649 20.5417 17.3943C20.9991 17.8533 21.3649 18.4958 21.4564 19.2761C21.4564 19.3679 21.4564 19.4596 21.4564 19.5514C21.4564 19.6432 21.4564 19.735 21.4564 19.8727C21.4107 20.0563 21.4107 20.2399 21.3649 20.4235C21.2735 20.7906 21.0448 21.1119 20.7704 21.3873C20.496 21.6626 20.1759 21.8462 19.81 21.9839C19.627 22.0298 19.4441 22.0757 19.2612 22.0757H18.9868C18.8953 22.0757 18.7581 22.0757 18.6666 22.0757C18.3007 22.0298 17.9349 21.938 17.6147 21.7544C17.2946 21.6167 17.0202 21.3873 16.7915 21.1578C16.5628 20.9283 16.3799 20.6988 16.2427 20.4694C16.1055 20.2399 16.014 20.0104 15.9226 19.8727C15.8768 19.6891 15.7854 19.5514 15.7854 19.4138C15.7396 19.322 15.7396 19.2761 15.7396 19.2761C15.7396 19.2761 15.7396 19.322 15.7396 19.4596C15.7396 19.5514 15.7396 19.735 15.7396 19.9186C15.7854 20.1022 15.8311 20.3776 15.9226 20.6529C16.014 20.9283 16.197 21.2037 16.4256 21.4791C16.6543 21.7544 16.9287 22.0298 17.2946 22.2593C17.6605 22.4888 18.0721 22.6723 18.5752 22.7641C18.6666 22.7641 18.8038 22.81 18.8953 22.81C19.0325 22.81 19.124 22.81 19.2612 22.81C19.3984 22.81 19.4898 22.81 19.627 22.7641C19.7642 22.7182 19.8557 22.7182 19.9929 22.6723C20.496 22.5347 20.9533 22.2593 21.3192 21.8921C21.6851 21.525 21.9595 21.066 22.0967 20.5611C22.0967 20.5152 22.0967 20.3776 22.1424 20.2399Z" fill="white" fill-opacity="0.2"/>
<path d="M19.0782 7.71045C19.1239 7.66455 19.1239 7.66455 19.1239 7.66455C19.1239 7.66455 19.1239 7.66455 19.0782 7.71045C18.9867 7.71045 18.8953 7.71045 18.8038 7.80224C18.7123 7.89403 18.6209 7.98582 18.5294 8.1694C18.4837 8.35299 18.4379 8.53657 18.4837 8.76605C18.5294 8.99553 18.6209 9.17911 18.7581 9.40859C18.8038 9.50038 18.8953 9.59217 18.9867 9.68396C19.0782 9.77575 19.1239 9.82165 19.2611 9.95933C19.627 10.2806 20.0844 10.556 20.6332 10.6937C20.9076 10.7396 21.182 10.7855 21.4564 10.7855C21.5936 10.7855 21.7308 10.7855 21.868 10.7396C21.9595 10.7396 22.0052 10.6937 22.0967 10.6937C22.1881 10.6478 22.2339 10.6478 22.2796 10.6019C22.554 10.4642 22.7827 10.2347 22.8742 9.95933C22.9656 9.68396 22.9199 9.40859 22.8284 9.225C22.6455 8.81194 22.4168 8.62836 22.2339 8.49067C22.1424 8.44478 22.0509 8.39888 22.0052 8.35299C21.9595 8.30709 21.9137 8.30709 21.9137 8.30709C21.9137 8.30709 21.9137 8.35299 21.9595 8.39888C22.0052 8.44478 22.0509 8.53657 22.0967 8.62836C22.1881 8.81194 22.3253 9.08732 22.3711 9.36269C22.3711 9.50038 22.3711 9.63806 22.2796 9.77575C22.2339 9.86754 22.0967 9.95933 21.9595 10.0052C21.9137 10.0511 21.868 10.0511 21.8223 10.0511C21.7765 10.0511 21.7308 10.0511 21.6851 10.0511C21.5936 10.0511 21.5021 10.0511 21.4107 10.0511C21.2277 10.0511 20.9991 10.0052 20.8161 9.95933C20.6332 9.91344 20.4045 9.82165 20.2216 9.72986C20.0386 9.63806 19.8557 9.54627 19.6728 9.40859C19.627 9.36269 19.4898 9.2709 19.4441 9.225C19.3984 9.17911 19.3069 9.08732 19.2611 9.04142C19.1239 8.90373 19.0325 8.76605 18.9867 8.62836C18.8495 8.35299 18.8495 8.12351 18.941 7.93992C18.9867 7.84813 19.0782 7.75634 19.0782 7.71045Z" fill="white" fill-opacity="0.2"/>
<path d="M9.15391 16.5224C9.51978 15.5127 10.5259 14.9619 12.8584 14.6407C15.1908 14.3194 17.7977 15.7881 20.7247 15.2832C23.8804 14.7325 20.2674 13.9063 16.5171 12.759C12.8127 11.6116 12.584 12.8966 9.70272 12.5295C6.86719 12.1623 5.4037 12.8049 4.99209 14.503C4.80915 15.3291 1.56201 14.044 1.56201 15.6045C1.56201 16.4306 1.97362 17.3485 4.03166 18.2664C5.99824 19.1843 8.78804 17.5321 9.15391 16.5224Z" fill="white" fill-opacity="0.2"/>
<path d="M9.42831 37.0377C8.55935 37.1754 7.91907 37.9097 8.05627 38.69C8.19348 39.4243 9.0167 39.9291 9.88565 39.7456C10.7546 39.6079 11.3949 38.8735 11.2577 38.0933C11.1205 37.359 10.2973 36.9 9.42831 37.0377Z" fill="white" fill-opacity="0.2"/>
<path d="M6.68425 36.8541C6.22691 36.9459 5.9525 37.313 5.99824 37.6802C6.04397 38.0474 6.45558 38.2768 6.91292 38.231C7.37027 38.1392 7.64467 37.772 7.59894 37.4048C7.50747 37.0377 7.09586 36.8082 6.68425 36.8541Z" fill="white" fill-opacity="0.2"/>
<path d="M8.69658 35.6608C8.3307 35.7067 8.10203 36.028 8.14777 36.3493C8.1935 36.6705 8.55938 36.8541 8.87952 36.7623C9.24539 36.7164 9.47406 36.3952 9.42833 36.0739C9.38259 35.7526 9.06245 35.569 8.69658 35.6608Z" fill="white" fill-opacity="0.2"/>
<path d="M13.1327 15.9716C12.2637 15.2832 11.0289 15.3291 10.3886 16.1552C9.7026 16.9813 9.83981 18.2205 10.7088 18.9089C11.5777 19.5974 12.8125 19.5515 13.4528 18.7254C14.1388 17.8992 14.0016 16.7059 13.1327 15.9716Z" fill="white" fill-opacity="0.2"/>
<path d="M14.6879 15.9257C14.3677 16.2929 14.4135 16.8895 14.8251 17.2108C15.2367 17.5321 15.8312 17.4862 16.1514 17.119C16.4715 16.7518 16.4258 16.1552 16.0142 15.8339C15.6026 15.5127 15.008 15.5585 14.6879 15.9257Z" fill="white" fill-opacity="0.2"/>
<path d="M22.1424 26.0227C21.7308 26.3899 21.6393 26.9866 21.9137 27.3537C22.2338 27.7209 22.7826 27.7209 23.24 27.3537C23.6516 26.9866 23.7431 26.3899 23.4687 26.0227C23.1485 25.6556 22.554 25.6556 22.1424 26.0227Z" fill="white" fill-opacity="0.2"/>
<path d="M13.27 27.9045C13.7273 28.0422 14.139 27.8127 14.2762 27.4455C14.3676 27.0784 14.139 26.6653 13.6816 26.5735C13.2243 26.4358 12.8127 26.6653 12.6755 27.0325C12.5383 27.3997 12.8127 27.7668 13.27 27.9045Z" fill="white" fill-opacity="0.2"/>
<path d="M4.94634 6.79249C6.2269 6.47122 7.09586 5.64509 6.91292 5.00256C6.72998 4.36002 5.58662 4.08464 4.30606 4.40591C3.0255 4.72718 2.15655 5.5533 2.33949 6.19584C2.52242 6.83838 3.71152 7.11376 4.94634 6.79249Z" fill="white" fill-opacity="0.2"/>
<path d="M1.92802 7.48095C1.33347 7.75632 1.01333 8.26118 1.15054 8.58245C1.28774 8.90371 1.88229 8.90372 2.47683 8.62834C3.07138 8.35297 3.39152 7.84811 3.25431 7.52684C3.07138 7.20557 2.47683 7.15968 1.92802 7.48095Z" fill="white" fill-opacity="0.2"/>
<path d="M25.5267 13.0802C25.0236 13.5392 25.298 14.6865 26.2127 15.6504C27.0817 16.6142 28.225 17.0272 28.7281 16.5683C29.2312 16.1093 28.9568 14.9619 28.0421 13.9981C27.1731 13.0343 26.0298 12.6212 25.5267 13.0802Z" fill="white" fill-opacity="0.2"/>
<path d="M10.1142 11.841C11.4405 11.7951 12.4924 11.1067 12.4466 10.3264C12.4009 9.54621 11.349 8.94957 10.0227 8.99546C8.69644 9.04136 7.64455 9.72979 7.69028 10.51C7.73601 11.2902 8.7879 11.8869 10.1142 11.841Z" fill="white" fill-opacity="0.2"/>
<path d="M6.63856 12.2541C7.18737 12.2541 7.64472 11.9328 7.64472 11.6116C7.64472 11.2903 7.18737 11.0149 6.59283 11.0608C6.04401 11.0608 5.58667 11.3821 5.58667 11.7033C5.6324 12.0246 6.08975 12.3 6.63856 12.2541Z" fill="white" fill-opacity="0.2"/>
<path d="M26.3957 12.1164C26.6244 11.8869 26.4415 11.2903 25.9841 10.8313C25.5268 10.3724 24.9322 10.1888 24.7035 10.4642C24.4749 10.6936 24.6578 11.2903 25.1152 11.7492C25.5725 12.2082 26.167 12.3918 26.3957 12.1164Z" fill="white" fill-opacity="0.2"/>
<path d="M-14.445 17.5321C-14.2621 17.0731 -14.1249 16.6142 -13.8962 16.1552C-13.5303 15.1914 -13.0273 14.2276 -12.4785 13.2638C-11.9296 12.3 -11.2894 11.3362 -10.6033 10.4183C-9.91733 9.50034 -9.13985 8.58242 -8.2709 7.7563C-7.44768 6.93018 -6.53299 6.14996 -5.61831 5.41562C-4.70362 4.72719 -3.7432 4.08465 -2.78278 3.5339C-1.82236 2.98316 -0.861938 2.5242 0.0984821 2.11114C0.555826 1.88166 1.0589 1.74397 1.47051 1.56039C1.92786 1.4227 2.3852 1.23912 2.79681 1.14733C3.66576 0.917852 4.44324 0.688374 5.17499 0.550687C5.54087 0.504791 5.86101 0.413 6.18115 0.367104C6.50129 0.321208 6.77569 0.275313 7.0501 0.229417C7.55318 0.137626 8.01052 0.137626 8.28493 0.0917303C8.55933 0.0458346 8.74227 0.0458346 8.74227 0.0458346C8.74227 0.0458346 8.60507 0.0458346 8.28493 0.0458346C8.01052 0.0458346 7.59891 -6.10352e-05 7.0501 -6.10352e-05C6.77569 -6.10352e-05 6.50129 -6.10352e-05 6.18115 -6.10352e-05C5.86101 0.0458346 5.49513 0.0458346 5.12926 0.0917303C4.39751 0.183522 3.52856 0.275313 2.65961 0.458895C2.20226 0.550687 1.74492 0.688374 1.24184 0.780165C0.784498 0.917852 0.28142 1.05554 -0.221658 1.23912C-1.22781 1.56039 -2.23397 2.01935 -3.28586 2.5701C-4.29201 3.12084 -5.3439 3.71749 -6.35006 4.45182C-7.31048 5.14025 -8.2709 5.96637 -9.13985 6.83839C-10.0088 7.71041 -10.832 8.67422 -11.5638 9.68392C-12.2955 10.6936 -12.8901 11.7033 -13.4389 12.7589C-13.942 13.8145 -14.3993 14.8242 -14.7652 15.8339C-14.9481 16.3388 -15.0853 16.8436 -15.2225 17.3026C-15.3597 17.8074 -15.4512 18.2664 -15.5427 18.7254C-15.7256 19.6433 -15.8628 20.4694 -15.9085 21.2037C-15.9543 21.525 -15.9543 21.8922 -16 22.2134C-16 22.5347 -16 22.856 -16 23.0854C-16 23.6362 -15.9543 24.0493 -15.9543 24.3246C-15.9543 24.6 -15.9543 24.7836 -15.9543 24.7836C-15.9543 24.7836 -15.9543 24.6459 -15.9085 24.3705C-15.8628 24.0952 -15.8628 23.6821 -15.7713 23.1313C-15.7256 22.856 -15.6799 22.5806 -15.6341 22.2593C-15.5884 21.9381 -15.4969 21.6168 -15.4512 21.2496C-15.314 20.5153 -15.131 19.7351 -14.8566 18.8631C-14.7194 18.4041 -14.5822 17.991 -14.445 17.5321Z" fill="white" fill-opacity="0.2"/>
</svg>
